<?xml version="1.0" encoding="UTF-8"?>
<svg width="200px" height="200px" viewBox="0 0 200 200" version="1.1" xmlns="http://www.w3.org/2000/svg" xmlns:xlink="http://www.w3.org/1999/xlink">
    <!-- Generator: Sketch 46 (44423) - http://www.bohemiancoding.com/sketch -->
    <title>Artboard 3</title>
    <desc>Created with Sketch.</desc>
    <defs></defs>
    <g id="Page-1" stroke="none" stroke-width="1" fill="none" fill-rule="evenodd">
        <g id="Artboard-3">
            <g id="Group" transform="translate(55.000000, 32.000000)">
                <path d="M26.611,12.7902089 C26.611,12.7902089 16.376,19.1652089 15.125,21.6702089 C13.874,24.1752089 12.509,29.5252089 12.168,33.5102089 C11.827,37.4942089 11.827,43.4142089 11.486,44.5532089 C11.145,45.6912089 13.874,50.4732089 14.784,52.2942089 C15.694,54.1162089 15.466,58.5562089 14.784,61.1742089 C14.101,63.7932089 11.713,64.8172089 7.392,67.8912089 C3.07,70.9652089 0,74.4942089 0,77.2262089 C3.639,75.8602089 7.506,75.8602089 9.212,75.8602089 C10.917,75.8602089 15.342,72.6732089 17.678,71.7622089 C20.015,70.8512089 19.788,70.2822089 21.38,71.4202089 C22.972,72.5592089 26.042,74.7222089 29.226,72.3312089 C32.411,69.9402089 34.003,70.0542089 32.752,66.8662089 C31.501,63.6792089 30.25,57.8732089 28.885,54.3432089 C27.521,50.8142089 23.654,44.7482089 22.858,40.5522089 C22.062,36.3562089 26.611,12.7902089 26.611,12.7902089" id="Fill-2" fill="#FFFFFE"></path>
                <path d="M26.611,12.7902089 C26.611,12.7902089 16.376,19.1652089 15.125,21.6702089 C13.874,24.1752089 12.509,29.5252089 12.168,33.5102089 C11.827,37.4942089 11.827,43.4142089 11.486,44.5532089 C11.145,45.6912089 13.874,50.4732089 14.784,52.2942089 C15.694,54.1162089 15.466,58.5562089 14.784,61.1742089 C14.101,63.7932089 11.713,64.8172089 7.392,67.8912089 C3.07,70.9652089 0,74.4942089 0,77.2262089 C3.639,75.8602089 7.506,75.8602089 9.212,75.8602089 C10.917,75.8602089 15.342,72.6732089 17.678,71.7622089 C20.015,70.8512089 19.788,70.2822089 21.38,71.4202089 C22.972,72.5592089 26.042,74.7222089 29.226,72.3312089 C32.411,69.9402089 34.003,70.0542089 32.752,66.8662089 C31.501,63.6792089 30.25,57.8732089 28.885,54.3432089 C27.521,50.8142089 23.654,44.7482089 22.858,40.5522089 C22.062,36.3562089 26.611,12.7902089 26.611,12.7902089 Z" id="Stroke-3" stroke="#E5702A" stroke-width="1.417"></path>
                <path d="M12.1569,135.690009 L12.1569,104.850009 C12.1569,83.1710089 29.7409,65.5970089 51.4329,65.5970089 C73.1249,65.5970089 90.7089,83.1710089 90.7089,104.850009 L90.7089,135.690009 L12.1569,135.690009 Z" id="Fill-4" fill="#FFFFFE"></path>
                <path d="M12.1569,135.690009 L12.1569,104.850009 C12.1569,83.1710089 29.7409,65.5970089 51.4329,65.5970089 C73.1249,65.5970089 90.7089,83.1710089 90.7089,104.850009 L90.7089,135.690009 L12.1569,135.690009 Z" id="Stroke-5" stroke="#E5702A" stroke-width="1.417"></path>
                <path d="M78.9122,48.6489089 C78.9122,63.8249089 66.6092,76.1279089 51.4332,76.1279089 C36.2562,76.1279089 23.9542,63.8249089 23.9542,48.6489089 C23.9542,33.4729089 36.2562,21.1699089 51.4332,21.1699089 C66.6092,21.1699089 78.9122,33.4729089 78.9122,48.6489089" id="Fill-6" fill="#FFFFFE"></path>
                <path d="M78.9122,48.6489089 C78.9122,63.8249089 66.6092,76.1279089 51.4332,76.1279089 C36.2562,76.1279089 23.9542,63.8249089 23.9542,48.6489089 C23.9542,33.4729089 36.2562,21.1699089 51.4332,21.1699089 C66.6092,21.1699089 78.9122,33.4729089 78.9122,48.6489089 Z" id="Stroke-7" stroke="#E5702A" stroke-width="1.417"></path>
                <path d="M18.9879,11.0679089 C21.5449,7.54890893 32.3609,-0.73109107 45.6809,0.0519089298 C59.0019,0.83490893 70.8519,6.17990893 73.0099,9.55090893 C75.1689,12.9209089 67.3129,13.5919089 67.3129,13.5919089 L18.9879,11.0679089 Z" id="Fill-8" fill="#E5702A"></path>
                <path d="M18.9879,11.0679089 C21.5449,7.54890893 32.3609,-0.73109107 45.6809,0.0519089298 C59.0019,0.83490893 70.8519,6.17990893 73.0099,9.55090893 C75.1689,12.9209089 67.3129,13.5919089 67.3129,13.5919089 L18.9879,11.0679089 Z" id="Stroke-9" stroke="#FFFFFE" stroke-width="1.417"></path>
                <path d="M15.2819,21.0620089 C13.5739,19.3840089 13.0049,17.0360089 15.2819,14.4640089 C17.5589,11.8910089 25.8729,3.50400893 41.8149,3.50400893 C57.7579,3.50400893 71.1959,8.31300893 74.1569,10.4380089 C77.1169,12.5620089 80.1919,15.6940089 80.0779,19.4960089 C79.9639,23.2990089 80.8609,24.8130089 80.8609,24.8130089 L50.3999,10.7730089 L15.2819,21.0620089 Z" id="Fill-10" fill="#E5702A"></path>
                <path d="M15.2819,21.0620089 C13.5739,19.3840089 13.0049,17.0360089 15.2819,14.4640089 C17.5589,11.8910089 25.8729,3.50400893 41.8149,3.50400893 C57.7579,3.50400893 71.1959,8.31300893 74.1569,10.4380089 C77.1169,12.5620089 80.1919,15.6940089 80.0779,19.4960089 C79.9639,23.2990089 80.8609,24.8130089 80.8609,24.8130089 L50.3999,10.7730089 L15.2819,21.0620089 Z" id="Stroke-11" stroke="#FFFFFE" stroke-width="1.417"></path>
                <path d="M84.8346,49.3975089 C85.6496,41.8905089 83.4766,28.1275089 80.2736,23.6905089 C72.9526,15.3875089 69.7506,12.8855089 60.8276,10.6105089 C51.9056,8.33550893 38.6366,6.40150893 26.8546,12.5435089 C22.8516,17.3215089 16.4456,22.6675089 16.3316,24.2595089 C16.2166,25.8525089 15.5196,34.2575089 17.8696,38.5855089 C20.2196,42.9135089 22.2786,38.5915089 22.2786,38.5915089 L30.4006,29.3785089 L43.2116,21.4155089 L51.3526,21.4155089 L69.9786,28.9085089 L80.9596,47.8055089 L84.8346,49.3975089 Z" id="Fill-12" fill="#FFFFFE"></path>
                <path d="M84.8346,49.3975089 C85.6496,41.8905089 83.4766,28.1275089 80.2736,23.6905089 C72.9526,15.3875089 69.7506,12.8855089 60.8276,10.6105089 C51.9056,8.33550893 38.6366,6.40150893 26.8546,12.5435089 C22.8516,17.3215089 16.4456,22.6675089 16.3316,24.2595089 C16.2166,25.8525089 15.5196,34.2575089 17.8696,38.5855089 C20.2196,42.9135089 22.2786,38.5915089 22.2786,38.5915089 L30.4006,29.3785089 L43.2116,21.4155089 L51.3526,21.4155089 L69.9786,28.9085089 L80.9596,47.8055089 L84.8346,49.3975089 Z" id="Stroke-13" stroke="#E5702A" stroke-width="1.417"></path>
                <path d="M24.1793,52.8367089 C25.8583,51.1597089 26.4883,45.7077089 26.6983,41.5147089 C26.9083,37.3207089 28.3773,31.6597089 32.5753,30.4017089 C36.7733,29.1437089 43.2803,25.3697089 44.5393,23.9027089 C45.7983,22.4347089 54.6143,23.9027089 62.3803,28.0957089 C70.1463,32.2887089 75.3943,38.7887089 76.8633,43.4017089 C78.3323,48.0147089 78.5963,50.7517089 78.0273,54.0647089 C77.4583,57.3787089 74.7623,63.3177089 74.7623,63.3177089 C74.7623,63.3177089 75.9703,61.6427089 78.6203,59.1267089 C81.2713,56.6107089 86.3083,54.7237089 84.4203,47.8047089 C82.5303,40.8857089 77.2833,31.6597089 74.1353,28.3057089 C70.9863,24.9507089 69.7263,23.6927089 64.8993,22.4347089 C60.0723,21.1767089 55.4533,18.4507089 48.3173,19.2897089 C41.1803,20.1287089 38.2423,20.9667089 38.2423,20.9667089 C38.2423,20.9667089 33.8343,22.4347089 31.9453,23.6927089 C30.0563,24.9507089 19.1413,32.0797089 17.8823,38.7887089 C18.9313,44.8697089 24.1793,52.8367089 24.1793,52.8367089" id="Fill-14" fill="#FFFFFE"></path>
                <path d="M24.1793,52.8367089 C25.8583,51.1597089 26.4883,45.7077089 26.6983,41.5147089 C26.9083,37.3207089 28.3773,31.6597089 32.5753,30.4017089 C36.7733,29.1437089 43.2803,25.3697089 44.5393,23.9027089 C45.7983,22.4347089 54.6143,23.9027089 62.3803,28.0957089 C70.1463,32.2887089 75.3943,38.7887089 76.8633,43.4017089 C78.3323,48.0147089 78.5963,50.7517089 78.0273,54.0647089 C77.4583,57.3787089 74.7623,63.3177089 74.7623,63.3177089 C74.7623,63.3177089 75.9703,61.6427089 78.6203,59.1267089 C81.2713,56.6107089 86.3083,54.7237089 84.4203,47.8047089 C82.5303,40.8857089 77.2833,31.6597089 74.1353,28.3057089 C70.9863,24.9507089 69.7263,23.6927089 64.8993,22.4347089 C60.0723,21.1767089 55.4533,18.4507089 48.3173,19.2897089 C41.1803,20.1287089 38.2423,20.9667089 38.2423,20.9667089 C38.2423,20.9667089 33.8343,22.4347089 31.9453,23.6927089 C30.0563,24.9507089 19.1413,32.0797089 17.8823,38.7887089 C18.9313,44.8697089 24.1793,52.8367089 24.1793,52.8367089 Z" id="Stroke-15" stroke="#E5702A" stroke-width="1.417"></path>
            </g>
        </g>
    </g>
</svg>