<?xml version="1.0" encoding="UTF-8"?>
<svg width="200px" height="200px" viewBox="0 0 200 200" version="1.1" xmlns="http://www.w3.org/2000/svg" xmlns:xlink="http://www.w3.org/1999/xlink">
    <!-- Generator: Sketch 46 (44423) - http://www.bohemiancoding.com/sketch -->
    <title>Artboard</title>
    <desc>Created with Sketch.</desc>
    <defs></defs>
    <g id="Page-1" stroke="none" stroke-width="1" fill="none" fill-rule="evenodd">
        <g id="Artboard">
            <g id="Group" transform="translate(22.000000, 35.000000)">
                <path d="M155.0322,70.2056 L141.1162,13.3176 C140.3832,10.3166 137.3622,8.4816 134.3542,9.2126 C131.3532,9.9466 129.5162,12.9756 130.2502,15.9776 L140.5412,58.0456 L98.7472,55.3186 C91.9042,50.5936 83.6112,47.8206 74.6682,47.8206 L74.6672,47.8206 C51.2262,47.8206 32.2222,66.8296 32.2222,90.2796 L32.2222,130.3526 L117.1132,130.3526 L117.1132,90.2796 C117.1132,81.8046 114.6212,73.9166 110.3442,67.2896 L155.0322,70.2056 Z" id="Fill-31" fill="#FFFFFE"></path>
                <path d="M155.0322,70.2056 L141.1162,13.3176 C140.3832,10.3166 137.3622,8.4816 134.3542,9.2126 C131.3532,9.9466 129.5162,12.9756 130.2502,15.9776 L140.5412,58.0456 L98.7472,55.3186 C91.9042,50.5936 83.6112,47.8206 74.6682,47.8206 L74.6672,47.8206 C51.2262,47.8206 32.2222,66.8296 32.2222,90.2796 L32.2222,130.3526 L117.1132,130.3526 L117.1132,90.2796 C117.1132,81.8046 114.6212,73.9166 110.3442,67.2896 L155.0322,70.2056 Z" id="Stroke-32" stroke="#E5702A" stroke-width="1.417"></path>
                <path d="M104.3291,29.692 C104.3291,46.09 91.0361,59.384 74.6381,59.384 C58.2391,59.384 44.9451,46.09 44.9451,29.692 C44.9451,13.294 58.2391,0 74.6381,0 C91.0361,0 104.3291,13.294 104.3291,29.692" id="Fill-33" fill="#FFFFFE"></path>
                <path d="M104.3291,29.692 C104.3291,46.09 91.0361,59.384 74.6381,59.384 C58.2391,59.384 44.9451,46.09 44.9451,29.692 C44.9451,13.294 58.2391,0 74.6381,0 C91.0361,0 104.3291,13.294 104.3291,29.692 Z" id="Stroke-34" stroke="#E5702A" stroke-width="1.417"></path>
                <path d="M88.3394,74.6085 C89.4254,71.5375 91.7834,70.2045 94.2024,70.2045 C97.6764,70.2045 101.2754,72.9945 101.2754,77.4305 C101.2754,85.5265 90.6344,86.9535 88.3084,95.0495 C85.9514,86.8915 75.3424,85.5265 75.3424,77.4305 C75.3424,72.9945 78.8174,70.2045 82.2914,70.2045 C84.6794,70.2045 87.0374,71.5375 88.2474,74.6085 L88.3394,74.6085 Z" id="Fill-35" fill="#E5702A"></path>
                <path d="M32.063,124.9775 C30.256,124.9785 28.483,124.0975 27.412,122.4735 L0,80.9185 L42.253,54.8965 C44.876,53.2825 48.305,54.1055 49.915,56.7325 C51.525,59.3625 50.705,62.8015 48.084,64.4165 L15.648,84.3915 L36.703,116.3095 C38.4,118.8825 37.696,122.3485 35.131,124.0495 C34.185,124.6775 33.117,124.9775 32.063,124.9775" id="Fill-36" fill="#FFFFFE"></path>
                <path d="M32.063,124.9775 C30.256,124.9785 28.483,124.0975 27.412,122.4735 L0,80.9185 L42.253,54.8965 C44.876,53.2825 48.305,54.1055 49.915,56.7325 C51.525,59.3625 50.705,62.8015 48.084,64.4165 L15.648,84.3915 L36.703,116.3095 C38.4,118.8825 37.696,122.3485 35.131,124.0495 C34.185,124.6775 33.117,124.9775 32.063,124.9775 Z" id="Stroke-37" stroke="#E5702A" stroke-width="1.417"></path>
            </g>
        </g>
    </g>
</svg>