<?xml version="1.0" encoding="UTF-8"?>
<svg width="200px" height="200px" viewBox="0 0 200 200" version="1.1" xmlns="http://www.w3.org/2000/svg" xmlns:xlink="http://www.w3.org/1999/xlink">
    <!-- Generator: Sketch 46 (44423) - http://www.bohemiancoding.com/sketch -->
    <title>Artboard 2</title>
    <desc>Created with Sketch.</desc>
    <defs></defs>
    <g id="Page-1" stroke="none" stroke-width="1" fill="none" fill-rule="evenodd">
        <g id="Artboard-2">
            <g id="Group" transform="translate(35.000000, 34.000000)">
                <path d="M65.542,22.211 C71.016,6.725 82.907,0 95.107,0 C112.625,0 130.772,14.074 130.772,36.442 C130.772,77.269 77.116,84.466 65.384,125.292 C53.5,84.151 0,77.269 0,36.442 C0,14.074 17.525,0 35.042,0 C47.084,0 58.974,6.725 65.074,22.211 L65.542,22.211 Z" id="Fill-16" fill="#E5702A"></path>
                <path d="M63.0334,67.4671 L63.4004,67.8621 L63.1014,68.0261 L62.8904,67.9221 L63.0334,67.4671 Z M63.7604,67.5051 L63.5054,67.1921 L63.8354,66.6401 L64.3304,66.5821 L64.4654,67.2221 L64.1354,67.5351 L63.7604,67.5051 Z M37.6444,132.3491 L37.4334,131.8421 L36.9534,131.8581 L36.7884,132.6171 L37.3584,132.6171 L37.6444,132.3491 Z M38.1854,131.6491 L38.6354,131.1861 L39.0264,131.5291 L38.8014,132.2891 L38.3654,132.1701 L38.1854,131.6491 Z M42.0864,128.8291 L41.9954,129.6911 L42.3254,129.9881 L42.8954,130.0471 L43.0454,129.2751 L42.0864,128.8291 Z M51.1394,121.5811 L50.8094,120.4821 L51.5884,119.9471 L51.7084,119.5601 L51.5284,119.2641 L52.2484,118.8471 L52.6674,118.0161 L53.0284,118.8471 L52.6374,119.3531 L52.6074,120.0661 L51.5884,120.6901 L51.5594,121.4321 L51.1394,121.5811 Z M54.9294,113.2541 L55.4704,113.6851 L55.6064,114.3571 L55.3654,114.5361 L54.7644,114.0431 L54.7204,113.5361 L54.9294,113.2541 Z M56.6424,111.7331 L56.2974,111.4651 L55.6204,111.4351 L55.3954,111.2561 L55.6804,110.6751 L56.4014,110.3471 L56.6424,110.2871 L56.7774,110.0341 L57.2424,110.0041 L57.4974,109.8401 L58.0984,109.6761 L57.6334,110.4961 L56.8824,110.9881 L56.8374,111.4951 L56.6424,111.7331 Z M78.2074,29.7921 L77.8614,29.3891 L77.7724,28.7641 L78.4324,28.1671 L78.8834,28.0181 L78.7184,28.7641 L78.6884,29.4491 L78.2074,29.7921 Z M83.2234,33.8611 L82.5324,33.4441 L82.2014,32.7591 L82.4574,32.5791 L82.2014,31.1041 L81.6914,29.6881 L81.0604,29.1061 L80.3554,28.6301 L79.8594,28.6141 L79.7544,28.0631 L79.8444,26.9451 L79.6334,26.1261 L79.9344,25.4551 L80.4154,25.1861 L80.5504,24.8141 L81.1054,24.7091 L81.4664,23.8891 L81.7664,23.4871 L81.6754,23.1281 L80.8354,22.5031 L80.5194,22.4581 L80.2794,22.1601 L80.5804,21.5341 L81.1804,21.4001 L82.4874,22.1151 L83.8844,22.3391 L84.3494,21.9661 L84.4094,21.3551 L84.6644,21.0871 L84.4094,20.4901 L84.0344,20.2821 L83.8844,19.8791 L83.4184,19.1491 L83.1784,18.3891 L83.8094,17.6731 L84.1544,17.6281 L84.2444,17.2861 L83.9294,16.4811 L83.5134,15.2281 L83.6634,14.6631 L83.5724,13.1181 L83.2444,12.1671 L81.8054,9.9701 L81.5644,8.9891 L81.2054,8.4541 L81.4154,8.1871 L81.8054,8.1871 L82.2254,7.6821 L82.1344,7.3261 L83.0644,7.3261 L83.3644,7.9491 L84.7124,9.0481 L85.8514,9.2861 L86.4214,10.3861 L88.3104,12.2271 L89.3584,12.9701 L89.6884,13.5641 L90.4974,13.7421 L91.2174,14.5141 L92.4464,15.1091 L93.4654,15.2281 L94.2754,16.0011 L94.9044,15.8811 L95.2044,16.0891 L96.2534,15.9401 L97.5944,15.0351 L98.2714,14.1551 L98.4364,13.4251 L98.6304,13.1861 L98.8564,13.5291 L98.8564,14.2301 L98.4204,15.4521 L98.4064,16.5701 L98.6914,16.9581 L99.6984,17.5841 L100.3904,18.4361 L100.4494,19.0591 L100.3604,19.4751 L100.9894,19.4751 L101.3794,18.8521 L101.9794,18.2881 L102.4884,18.2281 L102.2184,18.8221 L101.8294,19.0591 L101.7694,19.8621 L101.2594,20.2491 L100.5404,20.5461 L100.3904,21.1691 L100.0904,21.6151 L99.5214,21.6451 L99.2214,21.4071 L98.6524,21.8521 L98.7114,22.2691 L97.6624,22.2691 L96.8534,22.0611 L96.1634,22.2691 L95.0544,23.8131 L94.6344,25.4771 L94.4544,26.8431 L94.6944,27.7641 L94.5454,28.4471 L94.6044,29.0721 L93.8844,28.7751 L93.4654,28.2101 L92.1764,27.8831 L90.9174,27.2301 L89.8084,26.2491 L89.0894,25.4471 L88.3404,25.5661 L87.6804,25.4171 L87.3504,25.0911 L86.5714,25.0611 L85.6424,25.7441 L84.6524,27.0811 L84.2334,26.8141 L83.1834,26.1601 L82.6144,26.2191 L82.0744,26.6941 L82.0744,27.4971 L82.3444,28.1501 L83.2144,28.6261 L84.1134,28.3881 L85.1624,29.5471 L86.0614,29.7841 L87.0204,29.7841 L87.3504,30.2601 L86.7214,31.0921 L86.5114,31.6861 L85.9414,31.2401 L84.8324,31.1801 L84.4134,31.4771 L84.5034,32.0721 L84.2034,32.7551 L83.2234,33.8611 Z M81.8714,56.6841 L81.9164,55.8931 L82.1714,55.4161 L81.9924,55.2971 L81.4804,55.5951 L81.4064,55.0731 L81.7664,53.7021 L82.0514,53.4191 L82.1864,54.0001 L82.1274,54.5971 L82.6964,54.7751 L82.8324,55.2221 L82.6224,56.1321 L82.1714,56.5791 L81.8714,56.6841 Z M51.2054,84.6031 L51.6564,84.9461 L51.9264,84.7821 L51.4154,84.4401 L51.1754,84.4541 L51.2054,84.6031 Z M50.9954,85.1551 L51.1304,85.3791 L51.2654,85.1851 L50.9954,85.1551 Z M50.4994,85.6471 L50.8304,85.7961 L50.9954,85.5571 L50.4994,85.6471 Z M49.9894,86.0641 L50.0804,86.4371 L50.5594,86.1691 L49.9894,86.0641 Z M49.3884,88.1071 L49.1034,87.2271 L49.1334,86.6911 L49.5684,86.4811 L49.6284,86.9741 L50.1094,87.2271 L50.4094,87.7931 L49.9284,88.1801 L49.3884,88.1071 Z M55.7104,88.6131 L55.6504,88.1661 L55.9064,87.8981 L56.2064,88.0611 L56.1314,88.5681 L55.7104,88.6131 Z M55.0044,89.9101 L55.3354,89.5531 L55.5754,89.6711 L55.2754,90.1631 L55.0044,89.9101 Z M54.6894,87.7781 L54.3744,88.1661 L54.4944,88.9561 L54.7944,89.5231 L55.1854,89.5371 L55.3504,88.8521 L54.8854,88.0611 L54.8694,87.8081 L54.6894,87.7781 Z M72.5904,77.8061 L72.2154,76.9861 L72.2294,76.3301 L72.5154,75.8831 L72.9504,75.8081 L73.1164,76.3301 L73.0114,76.9261 L73.1464,77.2691 L73.0264,77.7911 L72.5904,77.8061 Z M69.6324,77.0761 L70.2924,76.4501 L70.8184,76.5691 L70.7884,76.9721 L70.2624,77.2391 L69.6324,77.0761 Z M65.8574,85.7531 L66.1874,85.9021 L66.4574,85.6051 L66.9664,85.7831 L67.3564,85.6641 L67.2964,85.1591 L66.5474,84.3571 L66.9064,83.6441 L67.2664,82.4561 L68.2564,81.8621 L68.5254,81.4161 L69.4554,81.5351 L70.6234,82.2771 L70.9534,82.8421 L71.4634,82.6041 L71.8524,81.1491 L72.7824,80.2871 L72.8724,79.7521 L72.5724,79.4551 L72.3914,78.8911 L71.4924,78.1781 L70.8634,78.1491 L70.2644,77.7031 L69.1844,77.6441 L68.1654,78.4761 L68.1654,78.9801 L67.7754,79.5751 L67.0264,79.8111 L66.3974,80.2571 L66.0074,80.1391 L65.5274,79.0401 L65.1374,79.0701 L64.0294,80.3171 L63.9984,81.0601 L63.2794,81.5651 L63.0994,82.3961 L64.2684,82.6941 L64.4794,83.4951 L64.2384,83.7331 L64.2384,84.1491 L64.8984,85.1301 L65.9174,85.2491 L65.8574,85.7531 Z M60.4414,99.7331 L59.9304,99.1071 L59.4054,99.2121 L59.2094,99.7041 L59.6754,100.5231 L60.3814,100.6571 L60.5914,100.2851 L60.4414,99.7331 Z M61.1324,98.8091 L60.9524,97.4821 L60.9814,96.9311 L61.4474,97.3341 L61.5224,98.0341 L61.3274,98.5861 L61.1324,98.8091 Z M59.6594,96.4991 L60.4314,96.0331 L61.2404,94.9041 L60.4914,94.1611 L60.4614,93.7151 L60.8514,93.5371 L61.4514,93.7151 L61.8104,93.9821 L62.0204,93.1501 L61.9904,91.8441 L61.7504,91.1901 L61.8104,88.8431 L61.7204,87.5951 L62.1714,86.8531 L62.9494,86.0801 L62.7704,85.4561 L62.3494,85.3381 L62.3204,84.5651 L61.8704,84.4761 L62.0204,83.9411 L60.6514,83.9621 L60.4564,83.6651 L61.1164,83.2621 L61.3424,82.7401 L61.1324,81.6671 L60.5914,81.3381 L59.9304,81.4581 L59.9304,81.7261 L59.3754,82.1291 L58.7904,82.0391 L57.8734,81.0561 L58.0084,80.4741 L59.2854,79.8331 L60.4264,79.6241 L61.6574,80.0571 L62.2884,80.3401 L62.4094,79.9971 L62.3794,79.4311 L62.4384,78.5961 L62.3184,78.0301 L62.5584,77.5821 L63.1294,77.5371 L63.4604,78.0301 L64.0004,78.0591 L64.6914,77.6871 L66.0584,77.4341 L67.3644,77.0161 L68.2054,76.9861 L68.5364,77.1201 L68.9864,76.9121 L69.0164,76.6431 L69.8724,76.1661 L70.0824,75.7191 L71.0444,74.9291 L72.0354,74.6011 L73.2814,74.8251 L74.0024,74.6311 L74.3334,74.9291 L74.3334,75.6151 L73.7164,76.4941 L73.5364,77.1951 L73.9114,77.4481 L74.0024,78.1931 L74.0624,78.9691 L73.9414,79.2811 L74.1524,80.0571 L74.9934,80.4291 L76.1494,81.5021 L76.9304,81.7261 L77.4414,81.4581 L78.2524,80.2511 L78.3274,79.4611 L78.7774,79.1771 L78.8984,78.7751 L78.7334,78.2231 L79.2734,77.2251 L79.9934,77.1201 L80.6404,77.1201 L80.8654,76.7031 L80.6694,76.4051 L80.4894,75.5551 L79.0034,74.9141 L78.8084,74.4971 L79.1384,73.3931 L79.6184,72.9761 L79.9344,72.8721 L79.7694,73.2151 L79.8594,74.1091 L80.1444,74.3481 L80.5194,74.0941 L80.7004,73.8551 L81.2704,73.9901 L81.6914,74.2731 L82.1274,74.1391 L82.4124,74.2131 L82.2464,74.5561 L81.4964,74.7501 L81.4064,74.9591 L81.6754,75.0931 L82.3074,74.9141 L83.3334,74.3751 L85.4324,74.5541 L86.5114,74.4351 L86.2114,74.1671 L86.0024,73.3361 L86.2114,72.3851 L87.1114,71.9391 L87.7994,72.0581 L87.9504,72.8901 L87.7104,73.6631 L88.0404,74.2571 L88.6694,74.1971 L89.2984,73.3361 L88.8194,71.9101 L89.0594,71.0191 L90.0784,70.2461 L90.6484,70.2171 L90.8274,69.8301 L90.4374,69.3551 L90.6484,68.3741 L91.1574,68.0481 L91.9374,68.1971 L92.1174,68.6421 L91.7274,69.2061 L91.5174,70.3351 L91.7574,72.6821 L92.1464,72.8611 L92.6864,72.5041 L93.0454,71.7321 L93.7354,71.6721 L94.5154,70.8411 L94.8144,69.7711 L94.6344,69.0881 L95.5344,68.2561 L95.4144,67.7211 L94.9644,67.3051 L94.0054,65.9981 L93.6764,65.0171 L93.4064,63.0271 L93.7064,60.7101 L93.7654,59.1361 L93.0454,56.2541 L92.0264,54.8881 L91.9374,53.8181 L92.1764,52.4811 L93.4654,51.8871 L94.0954,51.8871 L94.4254,52.4511 L94.6644,52.1541 L94.4544,51.2041 L94.3054,50.5791 L94.0364,50.2591 L93.8254,49.4391 L93.8854,49.0211 L93.8704,48.3951 L94.1714,47.8881 L94.1564,47.6351 L94.2454,46.9941 L94.0054,46.6371 L93.9454,45.6191 L94.1254,45.1131 L93.7954,44.5201 L93.5554,42.9151 L92.8064,41.6081 L92.3864,41.6081 L91.9374,41.3701 L91.8464,39.6181 L91.0674,38.9051 L89.3794,37.0221 L88.9154,36.1871 L88.5844,34.9051 L88.4944,33.6531 L88.5544,33.2361 L88.0744,33.5331 L87.6984,33.5781 L87.5034,33.3401 L86.7674,33.0121 L86.3624,32.9671 L86.4214,33.2211 L86.0164,34.2351 L86.0314,34.9351 L86.3914,35.2771 L86.7814,35.0991 L87.7134,34.2791 L88.1334,35.3081 L87.8184,36.0531 L87.3224,36.3661 L86.7814,35.9641 L86.5874,35.9641 L86.8424,36.9321 L86.4674,37.3201 L85.8814,37.0961 L85.7464,36.3811 L85.6114,35.5461 L85.3554,35.1281 L84.8454,35.2931 L84.3954,35.0401 L84.2294,35.6951 L84.5304,36.9021 L84.5604,37.7371 L84.0644,37.9311 L83.5684,38.6611 L83.5834,39.1241 L84.6194,40.1671 L84.9654,40.7931 L84.6044,41.9111 L84.0484,42.2691 L83.4034,42.1351 L83.2684,42.5811 L83.8694,43.3421 L84.5004,43.1931 L85.0424,42.5881 L85.8514,44.4001 L86.1514,46.3911 L85.9724,47.4901 L86.0614,49.4501 L85.3424,52.3331 L85.5524,53.4321 L85.2224,54.6801 L84.2034,55.2141 L83.7534,56.4321 L83.8134,57.7991 L83.3034,58.6011 L83.1534,59.4331 L82.1564,60.3651 L80.1744,61.5431 L79.3944,61.7661 L79.0034,62.5561 L77.9964,61.9901 L77.0204,60.7981 L77.0504,60.2911 L77.4864,60.0821 L77.9214,59.3221 L77.8474,58.8891 L78.3574,58.3671 L78.3134,58.1591 L77.3514,58.3831 L76.6604,59.0831 L75.7744,59.4261 L75.6094,60.2161 L76.1944,61.2001 L76.3144,63.1381 L76.1944,64.0771 L75.2334,65.0601 L75.2194,65.5981 L74.8734,65.9851 L74.7384,67.4311 L75.0984,67.8331 L75.1584,68.4301 L74.8884,68.6541 L75.0684,68.8921 L74.8584,69.3981 L74.4524,69.4431 L74.7234,69.8161 L74.0924,70.0701 L73.6574,69.7421 L73.0564,70.1891 L72.6954,70.0541 L72.5454,69.1751 L72.3054,69.0711 L71.7654,69.4591 L71.2544,69.4731 L70.9994,69.2951 L69.1974,69.9201 L68.2504,70.2781 L67.3044,70.6061 L66.2384,70.6811 L65.2174,70.9941 L64.8564,70.7701 L63.9854,70.8751 L62.4234,71.9481 L62.1384,72.9171 L61.5674,73.3041 L61.4324,73.9011 L60.2914,75.1831 L59.5854,75.4501 L58.9844,76.2711 L58.8044,76.8071 L58.1884,77.4341 L57.0774,77.6571 L56.6874,78.2231 L56.9574,79.5201 L57.3784,79.7431 L57.5134,80.2061 L57.2584,80.6531 L56.5664,80.6971 L55.6964,81.3681 L55.4704,81.8461 L54.9294,82.2631 L54.1494,83.0981 L53.8484,83.7391 L53.1734,83.7531 L52.4214,84.1711 L52.7974,84.1711 L53.1884,84.2161 L53.4724,84.9461 L53.8334,85.9151 L53.5484,86.1831 L53.4124,85.5431 L53.0674,85.0511 L52.8724,85.7061 L53.0824,86.4521 L53.6084,86.6751 L53.6994,87.1521 L53.4284,87.6741 L53.8334,87.4501 L54.1194,86.8981 L54.7504,86.6911 L55.1554,86.8401 L54.8394,87.1371 L55.1404,87.3611 L55.7854,87.1671 L55.7104,86.4071 L55.2604,86.0051 L54.5094,86.1981 L54.5544,85.8701 L54.7644,85.5131 L54.5844,84.8861 L54.9294,84.4401 L55.6204,84.7081 L56.3414,85.9301 L56.4464,86.8401 L56.7924,87.2561 L56.8534,88.6571 L56.2524,89.9691 L55.5324,90.0431 L55.7104,90.5061 L56.3414,91.5941 L56.6114,93.0251 L57.3024,93.8301 L57.2884,94.5311 L56.9424,94.9631 L57.4674,95.6051 L58.1284,95.5151 L58.6844,95.8431 L58.9544,95.5291 L58.9544,95.0981 L58.3394,94.1591 L58.3394,92.8321 L58.7144,92.4141 L59.1344,92.7561 L58.8954,93.1151 L58.8794,93.5031 L59.5104,94.1591 L59.7654,95.2611 L59.5554,95.9181 L59.6594,96.4991 Z" id="Fill-17" fill="#FFFFFE"></path>
                <path d="M63.0334,67.4671 L63.4004,67.8621 L63.1014,68.0261 L62.8904,67.9221 L63.0334,67.4671 Z M63.7604,67.5051 L63.5054,67.1921 L63.8354,66.6401 L64.3304,66.5821 L64.4654,67.2221 L64.1354,67.5351 L63.7604,67.5051 Z M37.6444,132.3491 L37.4334,131.8421 L36.9534,131.8581 L36.7884,132.6171 L37.3584,132.6171 L37.6444,132.3491 Z M38.1854,131.6491 L38.6354,131.1861 L39.0264,131.5291 L38.8014,132.2891 L38.3654,132.1701 L38.1854,131.6491 Z M42.0864,128.8291 L41.9954,129.6911 L42.3254,129.9881 L42.8954,130.0471 L43.0454,129.2751 L42.0864,128.8291 Z M51.1394,121.5811 L50.8094,120.4821 L51.5884,119.9471 L51.7084,119.5601 L51.5284,119.2641 L52.2484,118.8471 L52.6674,118.0161 L53.0284,118.8471 L52.6374,119.3531 L52.6074,120.0661 L51.5884,120.6901 L51.5594,121.4321 L51.1394,121.5811 Z M54.9294,113.2541 L55.4704,113.6851 L55.6064,114.3571 L55.3654,114.5361 L54.7644,114.0431 L54.7204,113.5361 L54.9294,113.2541 Z M56.6424,111.7331 L56.2974,111.4651 L55.6204,111.4351 L55.3954,111.2561 L55.6804,110.6751 L56.4014,110.3471 L56.6424,110.2871 L56.7774,110.0341 L57.2424,110.0041 L57.4974,109.8401 L58.0984,109.6761 L57.6334,110.4961 L56.8824,110.9881 L56.8374,111.4951 L56.6424,111.7331 Z M78.2074,29.7921 L77.8614,29.3891 L77.7724,28.7641 L78.4324,28.1671 L78.8834,28.0181 L78.7184,28.7641 L78.6884,29.4491 L78.2074,29.7921 Z M85.8884,25.5631 L85.6424,25.7441 L84.6524,27.0811 L84.2334,26.8141 L83.1834,26.1601 L82.6144,26.2191 L82.0744,26.6941 L82.0744,27.4971 L82.3444,28.1501 L83.2144,28.6261 L84.1134,28.3881 L85.1624,29.5471 L86.0614,29.7841 L87.0204,29.7841 L87.3504,30.2601 L86.7214,31.0921 L86.5114,31.6861 L85.9414,31.2401 L84.8324,31.1801 L84.4134,31.4771 L84.5034,32.0721 L84.2034,32.7551 L83.2234,33.8611 L82.5324,33.4441 L82.2014,32.7591 L82.4574,32.5791 L82.2014,31.1041 L82.0444,30.6661 L85.8884,25.5631 Z M81.5224,29.5311 L81.0604,29.1061 L80.3554,28.6301 L79.8594,28.6141 L79.7544,28.0631 L79.8444,26.9451 L79.7744,26.6741 L81.5224,29.5311 Z M79.7044,26.4021 L79.6334,26.1261 L79.9344,25.4551 L80.4154,25.1861 L80.5504,24.8141 L81.1054,24.7091 L81.4664,23.8891 L81.7664,23.4871 L81.6754,23.1281 L80.8354,22.5031 L80.5194,22.4581 L80.2794,22.1601 L80.5804,21.5341 L81.1804,21.4001 L82.4874,22.1151 L83.8844,22.3391 L84.3494,21.9661 L84.4094,21.3551 L84.6644,21.0871 L84.4094,20.4901 L84.0344,20.2821 L83.8844,19.8791 L83.4184,19.1491 L83.1784,18.3891 L83.8094,17.6731 L84.1544,17.6281 L84.2444,17.2861 L83.9294,16.4811 L83.6944,15.7731 L79.7044,26.4021 Z" id="Fill-18" fill="#FFFFFE"></path>
                <polyline id="Fill-19" fill="#FFFFFE" points="83.6138 13.816 83.5728 13.118 83.2438 12.168 82.5268 11.072"></polyline>
                <path d="M81.9759,10.2305 L81.8049,9.9695 L81.5649,8.9885 L81.2059,8.4545 L81.4149,8.1875 L81.8049,8.1875 L82.2249,7.6815 L82.1339,7.3255 L83.0639,7.3255 L83.3639,7.9495 L84.7119,9.0485 L85.8519,9.2865 L86.4209,10.3855 L86.9439,10.8945 M88.3059,12.2225 L88.3099,12.2275 L89.3589,12.9705 L89.6889,13.5645 L90.4979,13.7425 L91.2179,14.5145 L91.2989,14.5535 M92.6159,15.1285 L93.4659,15.2275 L94.2759,16.0005 L94.9049,15.8805 L95.2039,16.0895 L96.2539,15.9405 L96.7109,15.6315 M97.7169,14.8765 L98.2709,14.1545 L98.4359,13.4255 L98.6309,13.1865 L98.8559,13.5285 L98.8559,14.2305 L98.5699,15.0335 M99.8139,17.7265 L100.3909,18.4365 L100.4499,19.0595 L100.3609,19.4755 L100.9889,19.4755 L101.3789,18.8525 L101.9799,18.2885 L102.4879,18.2275 L102.2189,18.8225 L101.8299,19.0595 L101.7689,19.8625 L101.2599,20.2485 L100.5409,20.5455 L100.3909,21.1695 L100.0909,21.6145 L99.5209,21.6445 L99.2209,21.4075 L98.6519,21.8525 L98.7109,22.2685 L97.6629,22.2685 L96.8539,22.0605 L96.7619,22.0885" id="Fill-20" fill="#FFFFFE"></path>
                <polygon id="Fill-21" fill="#FFFFFE" points="95.0543 23.8131 94.6353 25.4771 94.5423 26.1761 95.3703 23.3721"></polygon>
                <path d="M94.5341,27.1485 L94.6951,27.7645 L94.5451,28.4475 L94.6051,29.0715 L93.8851,28.7745 L93.4651,28.2105 L92.9881,28.0895 L94.5341,27.1485 Z M90.4781,26.8415 L89.8081,26.2495 L89.0891,25.4475 L88.3401,25.5655 L87.6801,25.4175 L87.3501,25.0905 L87.2721,25.0875 L90.4781,26.8415 Z M81.8711,56.6835 L81.9161,55.8935 L82.1721,55.4155 L81.9921,55.2975 L81.4801,55.5955 L81.4061,55.0735 L81.7671,53.7015 L82.0511,53.4185 L82.1871,54.0005 L82.1271,54.5965 L82.6971,54.7755 L82.8321,55.2225 L82.6231,56.1325 L82.1721,56.5795 L81.8711,56.6835 Z M51.6561,84.9465 L51.9261,84.7825 L51.4161,84.4395 L51.1751,84.4535 L51.2051,84.6035 L51.6561,84.9465 Z M50.9961,85.1555 L51.1311,85.3785 L51.2651,85.1855 L50.9961,85.1555 Z M50.5001,85.6465 L50.8301,85.7965 L50.9961,85.5575 L50.5001,85.6465 Z M49.9891,86.0635 L50.0801,86.4365 L50.5601,86.1685 L49.9891,86.0635 Z M49.3891,88.1065 L49.1031,87.2265 L49.1331,86.6905 L49.5681,86.4815 L49.6281,86.9735 L50.1091,87.2265 L50.4101,87.7935 L49.9291,88.1805 L49.3891,88.1065 Z M55.7111,88.6135 L55.6501,88.1665 L55.9061,87.8975 L56.2061,88.0615 L56.1321,88.5685 L55.7111,88.6135 Z M55.0051,89.9105 L55.3351,89.5525 L55.5761,89.6715 L55.2751,90.1635 L55.0051,89.9105 Z M54.6891,87.7785 L54.3741,88.1665 L54.4941,88.9555 L54.7941,89.5235 L55.1851,89.5375 L55.3501,88.8525 L54.8851,88.0615 L54.8701,87.8085 L54.6891,87.7785 Z M72.5901,77.8065 L72.2151,76.9865 L72.2291,76.3305 L72.5161,75.8835 L72.9511,75.8085 L73.1161,76.3305 L73.0121,76.9265 L73.1461,77.2695 L73.0261,77.7915 L72.5901,77.8065 Z M69.6321,77.0755 L70.2921,76.4495 L70.8191,76.5685 L70.7881,76.9715 L70.2621,77.2395 L69.6321,77.0755 Z M69.8431,77.6795 L69.1841,77.6445 L68.1651,78.4755 L68.1651,78.9805 L67.7761,79.5745 L67.0271,79.8115 L66.3971,80.2575 L66.0071,80.1395 L65.5281,79.0405 L65.1381,79.0695 L64.0291,80.3165 L63.9991,81.0605 L63.2791,81.5645 L63.0991,82.3965 L64.2681,82.6935 L64.4791,83.4955 L64.2381,83.7335 L64.2381,84.1495 L64.8981,85.1295 L65.9181,85.2495 L65.8571,85.7535 L66.1871,85.9025 L66.4571,85.6055 L66.9661,85.7825 L67.3571,85.6645 L67.2961,85.1595 L66.5471,84.3575 L66.9061,83.6445 L67.2661,82.4565 L68.2561,81.8625 L68.5251,81.4155 L69.4551,81.5355 L70.6231,82.2775 L70.9531,82.8415 L71.4631,82.6045 L71.8521,81.1485 L72.7821,80.2875 L72.8721,79.7525 L72.5721,79.4555 L72.3921,78.8915 L71.6431,78.2975 L69.8431,77.6795 Z M59.9301,99.1075 L59.4051,99.2125 L59.2101,99.7035 L59.6761,100.5235 L60.3811,100.6575 L60.5911,100.2855 L60.4411,99.7335 L59.9301,99.1075 Z M61.1321,98.8095 L60.9521,97.4825 L60.9821,96.9305 L61.4471,97.3335 L61.5221,98.0345 L61.3281,98.5865 L61.1321,98.8095 Z M56.8381,93.2895 L57.3021,93.8305 L57.2881,94.5305 L56.9421,94.9635 L57.4681,95.6045 L58.1291,95.5145 L58.6841,95.8435 L58.9541,95.5295 L58.9541,95.0975 L58.3391,94.1585 L58.3391,92.8325 L58.7141,92.4145 L59.1351,92.7565 L58.8951,93.1145 L58.8791,93.5025 L59.5101,94.1585 L59.7651,95.2615 L59.5551,95.9175 L59.6601,96.4985 L60.4321,96.0325 L61.2411,94.9045 L60.4911,94.1615 L60.4621,93.7155 L60.8511,93.5365 L61.4511,93.7155 L61.8101,93.9825 L62.0211,93.1505 L61.9951,92.0465 L56.8381,93.2895 Z M61.7211,87.5995 L61.7211,87.5955 L62.1711,86.8535 L62.9491,86.0805 L62.7701,85.4565 L62.3491,85.3375 L62.3201,84.5645 L61.8701,84.4765 L62.0211,83.9415 L60.6521,83.9625 L60.4561,83.6645 L61.1171,83.2615 L61.3421,82.7405 L61.1321,81.6665 L60.5911,81.3385 L59.9301,81.4585 L59.9301,81.7265 L59.3751,82.1295 L58.7901,82.0395 L57.8731,81.0555 L58.0081,80.4745 L59.2851,79.8335 L59.8251,79.7345 L61.7211,87.5995 Z M60.4441,79.6305 L61.6581,80.0575 L62.2891,80.3405 L62.4091,79.9975 L62.3791,79.4315 L62.4381,78.5965 L62.3191,78.0295 L62.5581,77.5825 L63.1301,77.5375 L63.4601,78.0295 L64.0001,78.0595 L64.6911,77.6875 L65.3331,77.5685 L60.4441,79.6305 Z M66.6211,77.2545 L67.3641,77.0165 L68.2051,76.9865 L68.5361,77.1195 L68.9861,76.9115 L69.0161,76.6435 L69.8731,76.1665 L70.0831,75.7195 L70.4681,75.4035 L66.6211,77.2545 Z M72.0681,74.6075 L73.2811,74.8255 L74.0031,74.6315 L74.3331,74.9295 L74.3331,75.6145 L73.7161,76.4945 L73.5371,77.1945 L73.9121,77.4485 L74.0031,78.1935 L74.0631,78.9685 L73.9421,79.2815 L74.1521,80.0575 L74.9931,80.4295 L75.7661,81.1465 L72.0681,74.6075 Z M77.5991,81.2235 L78.2521,80.2505 L78.3271,79.4605 L78.7771,79.1775 L78.8981,78.7745 L78.7331,78.2235 L79.2731,77.2245 L79.9941,77.1195 L80.6411,77.1195 L80.8651,76.7025 L80.6701,76.4045 L80.4891,75.5555 L79.0031,74.9145 L78.8521,74.5915 L77.5991,81.2235 Z M78.8511,74.3515 L79.1381,73.3935 L79.6191,72.9765 L79.9341,72.8715 L79.7691,73.2155 L79.8591,74.1095 L80.1451,74.3475 L80.5191,74.0935 L80.7001,73.8555 L81.2711,73.9905 L81.6921,74.2735 L82.1271,74.1395 L82.4121,74.2135 L82.2471,74.5565 L81.4961,74.7495 L81.4061,74.9595 L81.6761,75.0925 L82.3071,74.9145 L83.2101,74.4405 L78.8511,74.3515 Z M84.5411,74.4785 L85.4321,74.5535 L86.5111,74.4345 L86.2121,74.1675 L86.0021,73.3355 L86.2121,72.3855 L87.1111,71.9395 L87.8001,72.0585 L87.9501,72.8905 L87.7101,73.6625 L88.0401,74.2565 L88.6691,74.1975 L89.2991,73.3355 L88.8191,71.9095 L88.9391,71.4665 L84.5411,74.4785 Z M89.0261,71.1395 L89.0591,71.0185 L90.0791,70.2465 L90.6481,70.2165 L90.8281,69.8305 L90.4381,69.3555 L90.6481,68.3745 L91.1571,68.0475 L91.9371,68.1965 L92.1171,68.6415 L91.7271,69.2065 L91.5171,70.3355 L91.5311,70.4645 L89.0261,71.1395 Z M91.5581,70.7295 L91.7571,72.6825 L92.1461,72.8605 L92.6861,72.5045 L93.0461,71.7325 L93.7351,71.6725 L94.5151,70.8405 L94.8151,69.7705 L94.6351,69.0885 L95.5341,68.2565 L95.4141,67.7205 L94.9641,67.3045 L94.4871,66.6545 L91.5581,70.7295 Z" id="Fill-22" fill="#FFFFFE"></path>
                <polygon id="Fill-23" fill="#FFFFFE" points="93.4631 62.5833 93.7061 60.7093 93.7651 59.1363 93.0451 56.2533 93.0361 56.2393"></polygon>
                <path d="M91.9878,54.4202 L91.9378,53.8182 L92.1768,52.4812 L93.4658,51.8872 L94.0948,51.8872 L94.4248,52.4512 L94.6648,52.1542 L94.4548,51.2042 L94.3048,50.5792 L94.0808,50.3122 M94.2328,46.9752 L94.0058,46.6362 L93.9458,45.6192 L94.1248,45.1132 L93.7958,44.5202 L93.5558,42.9152 L92.8068,41.6082 L92.3868,41.6082 L91.9378,41.3702 L91.8468,39.6182 L91.6928,39.4772 M88.6558,35.1812 L88.5848,34.9052 L88.4938,33.6532 L88.5538,33.2352 L88.0738,33.5332 L87.6988,33.5782 L87.5028,33.3402 L86.7678,33.0122 L86.3618,32.9672 L86.4218,33.2212 L86.0168,34.2352 L86.0308,34.9342 L86.3918,35.2772 L86.7818,35.0992 L87.7138,34.2792 L88.1338,35.3082 L87.8188,36.0532 L87.3228,36.3662 L86.7818,35.9642 L86.5868,35.9642 L86.8418,36.9322 L86.4668,37.3202 L85.8808,37.0962 L85.7468,36.3802 L85.6118,35.5462 L85.3558,35.1282 L84.8448,35.2932 L84.3948,35.0402 L84.2298,35.6952 L84.5298,36.9022 L84.5598,37.7372 L84.0638,37.9312 L83.5688,38.6612 L83.5838,39.1242 L83.6478,39.1882 M83.7358,39.2772 L84.6198,40.1672 L84.9648,40.7932 L84.6048,41.9102 L84.0488,42.2692 L83.4028,42.1352 L83.2678,42.5812 L83.8688,43.3422 L84.4998,43.1932 L85.0428,42.5882 L85.8438,44.3832" id="Fill-24" fill="#FFFFFE"></path>
                <path d="M85.9724,47.4903 L85.9774,47.6023 L86.0214,47.1893 L85.9724,47.4903 Z M85.5784,51.3873 L86.0614,49.4503 L85.9774,47.6023 L85.5784,51.3873 Z" id="Fill-25" fill="#FFFFFE"></path>
                <polyline id="Fill-26" fill="#FFFFFE" points="85.4259 52.7712 85.5519 53.4312 85.2219 54.6792 84.2029 55.2142 83.9189 55.9842"></polyline>
                <polyline id="Fill-27" fill="#FFFFFE" points="83.7068 57.9664 83.3028 58.6014 83.1538 59.4334 82.1568 60.3654 82.0598 60.4224"></polyline>
                <path d="M81.1758,60.948 L80.1748,61.543 L79.3938,61.766 L79.0038,62.556 L77.9968,61.991 L77.0208,60.798 L77.0508,60.291 L77.4868,60.082 L77.9218,59.322 L77.8468,58.889 L78.3568,58.367 L78.3128,58.159 L77.3508,58.383 L76.6608,59.083 L75.7738,59.426 L75.6088,60.216 L76.1948,61.2 L76.1958,61.213 M75.2148,65.603 L74.8728,65.985 L74.7378,67.431 L75.0978,67.833 L75.1578,68.43 L74.8888,68.654 L75.0678,68.892 L74.8578,69.398 L74.4528,69.443 L74.7228,69.816 L74.0928,70.07 L73.6568,69.742 L73.0558,70.189 L72.6948,70.054 L72.5458,69.175 L72.3048,69.071 L71.7648,69.459 L71.2548,69.473 L70.9988,69.295 L69.1968,69.92 L69.1308,69.945 M67.1478,70.617 L66.2388,70.681 L65.2178,70.994 L64.8558,70.77 L63.9848,70.875 L63.4288,71.257" id="Fill-28" fill="#FFFFFE"></path>
                <polyline id="Fill-29" fill="#FFFFFE" points="61.6913 73.2204 61.5673 73.3044 61.4323 73.9004 60.2913 75.1834 59.5853 75.4504 59.0393 76.1954"></polyline>
                <path d="M58.2965,77.3242 L58.1885,77.4342 L57.0775,77.6572 L56.6875,78.2232 L56.9575,79.5202 L57.3785,79.7432 L57.5135,80.2062 L57.2575,80.6522 L56.5665,80.6972 L55.6965,81.3682 L55.6175,81.5342 M55.0225,82.1912 L54.9295,82.2622 L54.1485,83.0982 L53.8485,83.7392 L53.1735,83.7532 L52.4215,84.1712 L52.7975,84.1712 L53.1885,84.2162 L53.4725,84.9462 L53.8335,85.9152 L53.5485,86.1832 L53.4125,85.5422 L53.0675,85.0512 L52.8725,85.7062 L53.0825,86.4512 L53.6075,86.6752 L53.6985,87.1522 L53.4285,87.6742 L53.8335,87.4502 L54.1185,86.8982 L54.7505,86.6912 L55.1555,86.8392 L54.8395,87.1372 L55.1395,87.3612 L55.7855,87.1672 L55.7105,86.4072 L55.2605,86.0052 L54.5095,86.1982 L54.5545,85.8702 L54.7645,85.5122 L54.5845,84.8862 L54.9295,84.4392 L55.6205,84.7082 L56.2455,85.7672 M56.8305,88.1362 L56.8525,88.6572 L56.2525,89.9692 L55.5325,90.0432 L55.7105,90.5062 L56.3415,91.5942 L56.3805,91.8022" id="Fill-30" fill="#FFFFFE"></path>
            </g>
        </g>
    </g>
</svg>